<?xml version="1.0" encoding="utf-8"?>
<!-- Generator: Adobe Illustrator 24.0.3, SVG Export Plug-In . SVG Version: 6.00 Build 0)  -->
<svg version="1.1" id="Layer_1" xmlns="http://www.w3.org/2000/svg" xmlns:xlink="http://www.w3.org/1999/xlink" x="0px" y="0px"
	 viewBox="0 0 27.8 16.2" style="enable-background:new 0 0 27.8 16.2;" xml:space="preserve">
<style type="text/css">
	.st0{fill:#0E28A8;}
	.st1{fill:#FFFFFF;}
</style>
<title>Ikonat</title>
<path class="st0" d="M1.1,0h25.7c0.6,0,1,0.4,1,1v14.2c0,0.6-0.4,1-1,1H1.1c-0.6,0-1-0.4-1-1V1C0.1,0.4,0.5,0,1.1,0z"/>
<g id="_7JYhEj">
	<path class="st1" d="M11.4,5.1v8.2c0,0.3,0,0.5-0.3,0.6s-0.4-0.1-0.6-0.4c-0.6-1.4-1.2-2.7-1.8-4.1C8.6,9.2,8.5,9,8.1,9.1
		c-0.2,0-0.3,0-0.5,0c-0.2,0-0.4-0.2-0.4-0.4c0-0.2,0.2-0.4,0.4-0.4h1.2c0.2,0,0.4,0.1,0.4,0.3c0.4,0.9,0.8,1.8,1.2,2.6
		c0-0.1,0-0.2,0-0.2v-6c0-0.6,0.1-0.7,0.7-0.7h6.5c0.3,0,0.5,0.1,0.6,0.4c0.1,0.3-0.1,0.5-0.5,0.5L11.4,5.1L11.4,5.1z"/>
	<path class="st1" d="M12.8,7.7h1.6c0.1,0,0.2,0.1,0.2,0.2l0.5,0.9c0.2-0.3,0.4-0.6,0.6-0.8c0.1-0.1,0.2-0.2,0.4-0.2h1.3L17.2,8
		c-0.3,0.4-0.6,0.9-1,1.3c-0.1,0.1-0.1,0.3,0,0.4c0.3,0.5,0.7,1,1,1.5l0.2,0.3h-1.5c-0.1,0-0.2-0.1-0.2-0.2l-0.6-1l-0.7,1
		c-0.1,0.1-0.2,0.2-0.3,0.2h-1.3l1.4-1.9L12.8,7.7z"/>
	<path class="st1" d="M18.3,4.1c0-0.3,0.2-0.5,0.4-0.7c0.1-0.1,0.3-0.2,0.4-0.4c0.1-0.1,0.1-0.2,0.1-0.3c0,0-0.1-0.1-0.2-0.1
		c-0.1,0.1-0.2,0.1-0.3,0.2l0,0h-0.5c0-0.3,0.2-0.5,0.5-0.6h0.4c0.2,0,0.4,0.1,0.5,0.3c0.1,0.2,0,0.4-0.1,0.6
		c-0.2,0.2-0.4,0.3-0.6,0.5h0.8v0.4L18.3,4.1z"/>
</g>
</svg>
