<?xml version="1.0" encoding="utf-8"?>
<!-- Generator: Adobe Illustrator 24.0.3, SVG Export Plug-In . SVG Version: 6.00 Build 0)  -->
<svg version="1.1" id="Layer_1" xmlns="http://www.w3.org/2000/svg" xmlns:xlink="http://www.w3.org/1999/xlink" x="0px" y="0px"
	 viewBox="0 0 27.8 16.2" style="enable-background:new 0 0 27.8 16.2;" xml:space="preserve">
<style type="text/css">
	.st0{clip-path:url(#SVGID_2_);}
	.st1{fill:#E20707;}
	.st2{clip-path:url(#SVGID_4_);}
</style>
<title>Ikonat</title>
<g>
	<defs>
		<rect id="SVGID_1_" width="27.8" height="16.2"/>
	</defs>
	<clipPath id="SVGID_2_">
		<use xlink:href="#SVGID_1_"  style="overflow:visible;"/>
	</clipPath>
	<g class="st0">
		<path class="st1" d="M1.4,0h24.9c0.8,0,1.4,0.6,1.4,1.4v13.3c0,0.8-0.6,1.4-1.4,1.4H1.4c-0.8,0-1.4-0.6-1.4-1.4V1.4
			C0,0.6,0.6,0,1.4,0z"/>
		<g>
			<defs>
				<rect id="SVGID_3_" width="27.8" height="16.2"/>
			</defs>
			<clipPath id="SVGID_4_">
				<use xlink:href="#SVGID_3_"  style="overflow:visible;"/>
			</clipPath>
			<g class="st2">
				<path d="M18.4,10.3c-0.1,0-0.1,0-0.2,0c-0.1,0-0.1,0-0.2,0c-0.1-0.1-0.2-0.1-0.3,0c0,0-0.1,0-0.3,0.1s-0.4,0-0.4,0l0.2-0.1
					c0.1,0,0.1-0.1,0.2-0.1c0.1,0,0.2,0,0.3-0.1c0.1-0.1,0.1-0.1,0.3-0.1h0.1c0-0.1-0.2-0.2-0.3-0.2c0,0,0,0,0,0c-0.1,0-0.1,0-0.2,0
					c-0.1,0-0.3,0-0.3,0.2c0,0.1-0.1,0.2-0.3,0.3l-0.1,0.1l-0.3-0.1c-0.2,0-0.4-0.1-0.6-0.3L16,9.8l0.1-0.1c0,0-0.1-0.1-0.1-0.1
					c-0.4-0.2-0.8-0.5-0.9-1c-0.1-0.2-0.1-0.3,0.1-0.1s0.1,0.3,0.3,0.4S15.6,9,15.6,9s0-0.1-0.1-0.2s-0.3-0.6-0.1-0.6s0.1,0,0.2,0.3
					s0.4,0.7,0.5,0.8c0.1,0.1,0.3,0,0.4-0.1c0-0.1,0-0.1-0.1-0.2C16.2,8.8,16,8.5,16,8.2c0-0.1,0-0.1,0-0.1s0.1-0.1,0.2,0.1
					c0.3,0.4,0.6,0.7,1,1c0.3,0.2,0.6,0.2,0.9,0c0-0.1,0.1-0.1,0.1-0.1S18.1,9,18,9c-0.4,0-0.4,0-0.6,0c-0.3-0.2-0.6-0.5-0.7-0.9
					c-0.2-0.4-0.2-0.4,0.2-0.1c0.4,0.3,0.8,0.6,1.1,0.5c0.2-0.1,0.3-0.2,0.3-0.3s-0.1-0.2-0.2-0.1h-0.3c-0.1,0-0.3,0-0.4-0.1
					c-0.1-0.1-0.2-0.1-0.3-0.2c-0.2-0.2-0.4-0.5-0.6-0.8c0-0.1,0.1-0.1,0.3,0.1c0.2,0.2,0.4,0.3,0.6,0.4c0.1,0,0.2,0,0.3,0
					c0.2,0,0.2,0,0.3,0c0.1,0,0.2-0.1,0.2-0.3c0-0.2-0.1-0.3-0.4-0.2c-0.4,0.1-0.6,0-1-0.3c-0.2-0.2-0.2-0.3-0.2-0.4s0.1,0,0.4,0.2
					c0.2,0.1,0.4,0.2,0.7,0.2c0.1,0,0.3,0,0.4-0.1c0.1-0.1,0.2-0.3,0.1-0.4s-0.2-0.1-0.4,0c-0.1,0-0.2,0-0.2,0
					c-0.3,0-0.6-0.1-0.8-0.3c-0.1-0.1-0.2-0.2-0.1-0.3s0.1,0,0.2,0c0.2,0.1,0.4,0.1,0.6,0.1c0.2,0,0.4,0,0.6-0.1
					c0.2-0.1,0.3-0.2,0.3-0.3c0,0,0-0.1-0.1-0.1c0-0.1-0.2-0.1-0.4,0c-0.3,0.2-0.6,0.2-1,0.1c-0.2-0.1-0.3-0.2-0.4-0.3v0
					c0.1,0,0.1,0,0.4,0.1c0.1,0,0.3,0.1,0.4,0.1c0.2,0,0.4,0,0.6-0.1c0.2-0.1,0.4-0.3,0.4-0.5c0-0.1-0.1-0.1-0.1-0.2
					c-0.1,0-0.1,0-0.3,0.1c-0.2,0.2-0.5,0.3-0.8,0.3c-0.4,0-0.5,0-0.5-0.2s0.1-0.1,0.2-0.2c0.4-0.1,0.9-0.3,1.2-0.5
					c0.1-0.1,0.2-0.2,0.2-0.4c0-0.1-0.1-0.3-0.2-0.3c-0.1,0-0.2,0-0.3,0.2c-0.2,0.3-0.4,0.5-0.7,0.6c-0.2,0.1-0.4,0.2-0.5,0.2
					c0,0-0.1,0-0.1-0.1s-0.1-0.1-0.3,0S16,4.3,15.9,4.4s-0.4,0.2-0.5,0.3S15.3,4.8,15.3,5c0,0.1,0,0.2,0,0.3
					c-0.1,0.1-0.2,0.1-0.3,0.1c-0.2,0-0.3-0.1-0.3-0.3c0-0.2,0-0.4,0.1-0.5c0.1-0.2,0.2-0.3,0.4-0.4C15.4,4.1,15.6,4,15.9,4
					c0.2,0,0.4-0.1,0.5-0.3c-0.2,0.1-0.5,0-0.4,0h0.5c0.1,0,0.3-0.1,0.4-0.1c0.1-0.1,0.2-0.2,0.2-0.2s-0.1,0-0.2,0s-0.1,0.1-0.1,0.1
					c-0.1,0.1-0.2,0.1-0.3,0.1c-0.1,0-0.2,0-0.3,0c0,0-0.1-0.1-0.1-0.1c0,0,0.1-0.1,0.2-0.1c0.1,0,0.2,0,0.3,0.1c0,0,0-0.1,0-0.1
					c-0.1-0.1-0.1-0.1-0.4-0.1s-0.2,0-0.2-0.1h-0.1c0,0-0.1,0-0.1,0c-0.2,0-0.4,0.1-0.6,0.1c-0.1,0-0.2,0-0.3,0h-0.2
					c-0.2,0-0.2,0-0.2,0c0.1,0.1,0.2,0.2,0.3,0.2c0.1,0,0.1,0,0.1,0.1c-0.1,0.1-0.2,0.1-0.3,0.2c-0.1,0-0.1,0.1,0,0.2L14.4,4
					c0,0.1-0.2,0.2-0.3,0.2s-0.1,0.1,0,0.1s0.1,0,0,0.1S14,4.5,13.9,4.5s-0.1,0-0.1,0.1s0.1,0.1,0,0.1s0,0-0.1,0l0,0l0,0l0,0l0,0
					h-0.1c0,0,0,0,0-0.1s0-0.1,0-0.1c-0.1,0-0.2,0-0.2-0.1c0-0.1,0-0.1,0-0.1s0.2-0.1,0-0.1S13.3,4,13.3,4c0,0,0.1,0,0.1-0.1
					c0.1-0.1,0.1-0.1,0-0.2c-0.1,0-0.2-0.1-0.3-0.2c0,0,0,0,0.1-0.1c0.1-0.1,0.2-0.1,0.2-0.2c0,0,0,0-0.2,0H13c-0.1,0-0.2,0-0.3,0
					c-0.2-0.1-0.4-0.1-0.6-0.1c-0.1,0-0.1,0-0.1,0H12c0,0-0.1,0.1-0.2,0.1s-0.3,0-0.4,0.1l-0.1,0.1c0.1,0,0.2-0.1,0.3-0.1
					c0.1,0,0.2,0.1,0.2,0.1l-0.1,0.1c-0.1,0-0.2,0-0.2,0c-0.2,0-0.2,0-0.3-0.1c0-0.1-0.1-0.1-0.1-0.1c0,0-0.1,0-0.2,0
					c0,0,0,0.1,0.1,0.2c0.1,0.1,0.2,0.1,0.3,0.1h0.5c-0.1,0.1-0.3,0.1-0.5,0C11.5,3.9,11.8,4,12,4c0.2,0,0.4,0.1,0.6,0.2
					c0.2,0.1,0.3,0.2,0.4,0.4c0.1,0.2,0.1,0.3,0.1,0.5c0,0.2-0.1,0.3-0.3,0.3c-0.1,0-0.2,0-0.3-0.1c-0.1-0.1-0.1-0.2-0.1-0.3
					c0-0.1,0-0.2,0-0.3c-0.1-0.1-0.2-0.2-0.5-0.3l-0.5-0.2c-0.2-0.1-0.2-0.1-0.3,0c0,0,0,0.1-0.1,0.1c-0.2,0-0.4-0.1-0.6-0.2
					C10.3,3.9,10,3.7,9.8,3.4C9.7,3.3,9.7,3.2,9.6,3.2c-0.1,0-0.2,0.1-0.2,0.3c0,0.1,0.1,0.3,0.3,0.4c0.4,0.3,0.8,0.5,1.3,0.6
					c0.1,0,0.2,0.1,0.2,0.2S11,4.9,10.6,4.9c-0.3,0-0.6-0.1-0.8-0.3C9.7,4.4,9.6,4.4,9.5,4.4c-0.1,0-0.1,0.1-0.1,0.2
					c0.1,0.2,0.2,0.4,0.4,0.5c0.2,0.1,0.4,0.1,0.6,0.1c0.1,0,0.3,0,0.4-0.1C11.1,5,11.1,5,11.2,5.1s0,0,0,0.1
					c-0.3,0.4-0.8,0.6-1.3,0.3c0,0,0,0-0.1,0c-0.2-0.1-0.3-0.1-0.4,0c0,0,0,0.1,0,0.1c0,0.1,0.1,0.2,0.3,0.3C9.9,5.9,10.1,6,10.3,6
					c0.2,0,0.4,0,0.6-0.1c0.1-0.1,0.2-0.1,0.2,0s0,0.2-0.2,0.3c-0.2,0.2-0.5,0.3-0.8,0.3c-0.1,0-0.2,0-0.2,0c-0.1-0.1-0.3-0.1-0.4,0
					S9.5,6.7,9.7,6.8C9.8,6.9,9.9,6.9,10,6.9c0.2,0,0.3,0,0.7-0.2s0.4-0.2,0.4-0.2s0,0.2-0.2,0.4c-0.2,0.3-0.6,0.5-1,0.3
					c-0.3-0.1-0.4,0-0.4,0.2c0,0.1,0.1,0.2,0.2,0.3c0.1,0,0.1,0,0.3,0c0.1,0,0.2,0,0.3,0c0.2-0.1,0.5-0.3,0.7-0.4
					C11.2,7,11.3,7,11.3,7.1c-0.1,0.3-0.3,0.5-0.6,0.8C10.7,8,10.6,8,10.4,8.1c-0.1,0.1-0.2,0.1-0.3,0.1H9.7c-0.2,0-0.2,0-0.2,0.1
					s0.2,0.2,0.3,0.3c0.3,0.1,0.7-0.1,1.2-0.5s0.4-0.3,0.2,0.1C11,8.5,10.7,8.8,10.4,9c-0.1,0.1-0.2,0.1-0.6,0C9.7,9,9.6,9,9.6,9.2
					s0,0.1,0.1,0.1c0.3,0.2,0.7,0.2,0.9,0c0.4-0.3,0.7-0.6,0.9-1c0.1-0.2,0.2-0.2,0.2-0.1s0,0.1,0,0.1c0,0.3-0.2,0.5-0.4,0.7
					c-0.1,0.1-0.2,0.2-0.2,0.2s0.3,0.1,0.4,0.1S11.8,9,12,8.6s0.1-0.3,0.2-0.3s0.1,0.4-0.1,0.6S12,9,12.1,9.1s0.1,0,0.3-0.1
					c0.1-0.1,0.3-0.2,0.3-0.4c0.1-0.2,0.2-0.1,0.1,0.1c-0.2,0.4-0.6,0.7-1,0.9l-0.1,0.1l0.1,0.1c0,0,0.1,0.1,0.1,0.1
					c-0.2,0.2-0.4,0.3-0.6,0.3l-0.3,0.1l-0.2-0.1c-0.2-0.1-0.3-0.2-0.3-0.3c-0.1-0.1-0.2-0.2-0.3-0.2c-0.1,0-0.1,0-0.2,0
					c-0.1,0-0.3,0-0.3,0.2h0.1c0.2,0,0.2,0,0.3,0.1c0.1,0.1,0.2,0.1,0.3,0.1c0.1,0,0.2,0,0.2,0.1l0.2,0.1c0,0-0.1,0-0.4,0
					s-0.2,0-0.3-0.1c-0.1-0.1-0.2-0.1-0.3,0c-0.1,0-0.1,0-0.2,0c0,0-0.1,0-0.1,0c-0.1,0.1-0.1,0.1-0.1,0.2h0.1c0.2,0,0.2,0,0.2,0
					s0.1,0,0.1,0.1c0.1,0,0.2,0,0.3,0c0,0,0.1,0,0.4,0h0.3c0,0-0.1,0.1-0.1,0.1c-0.2,0.1-0.2,0.1-0.3,0.1s-0.3,0-0.3,0.1
					s0,0.1,0,0.2s-0.1,0.1,0,0.3c0.1-0.2,0.1-0.1,0.1-0.2s0,0,0.1-0.1c0.1,0,0.2,0,0.3-0.2c0-0.1,0-0.1,0.2-0.2s0.2-0.1,0.5,0
					c0.1,0,0.2,0.1,0.2,0.1c0.1,0.1,0.2,0.1,0.2,0.1c0.1,0,0.1,0,0.2,0.1s0.1,0,0.1,0v-0.1c0-0.1,0-0.1-0.1-0.2s-0.2-0.2-0.3-0.1
					s-0.1,0-0.2-0.1s-0.2-0.1-0.1-0.1c0.2,0,0.3-0.1,0.5-0.1l0.4-0.2l0.1,0.1c0.1,0.1,0.2,0.1,0.4,0.2c0.1,0,0.1,0,0.1-0.1
					s0.3-0.6,0.4-0.8s0.3-0.4,0.4-0.3s0,0.1,0,0.2c0,0.4-0.2,0.8-0.5,1.1c-0.1,0.1-0.3,0.2-0.5,0.3c-0.1,0-0.2,0-0.2,0.1
					c0,0.1,0.1,0.2,0.1,0.2c0.1,0,0.2,0,0.2,0c0.1,0.1,0.2,0,0.3,0c0.1-0.1,0.1-0.1,0.2-0.1c0,0,0,0.1,0,0.1c0,0.2-0.2,0.2-0.4,0.3
					s-0.4,0.1-0.3,0.2c0.1,0.1,0.2,0.1,0.3,0.1c0.2,0,0.4-0.1,0.5-0.2l0.1-0.1c0.1,0,0.1,0.2,0,0.3s-0.1,0.2-0.2,0.3
					c0,0-0.1,0.1-0.2,0.1c-0.2,0.1-0.2,0.2-0.1,0.3c0.1,0,0.3,0,0.4,0c0.2-0.1,0.3-0.2,0.4-0.4c0-0.1,0.1,0,0.1,0.1
					c0,0.1-0.1,0.3-0.2,0.4c-0.1,0.1,0,0.3,0.1,0.5c0.1,0.1,0.1,0.2,0.2,0.3c0.1-0.1,0.2-0.2,0.2-0.3c0.2-0.2,0.2-0.4,0.1-0.5
					c-0.1-0.1-0.2-0.2-0.3-0.3c0-0.1,0-0.2,0.1-0.1c0.1,0.1,0.2,0.3,0.4,0.4c0.1,0.1,0.3,0.1,0.4,0C15,12.1,15,12,14.8,12
					c-0.1,0-0.1,0-0.2-0.1c-0.1-0.1-0.2-0.2-0.3-0.3c0-0.1,0-0.3,0-0.3s0.1,0,0.2,0.1c0.1,0.1,0.3,0.2,0.5,0.2c0.1,0,0.2,0,0.3-0.1
					c0.1-0.1,0-0.2-0.3-0.2s-0.4-0.1-0.4-0.3s0-0.1,0-0.1s0.1,0,0.2,0.1c0.1,0.1,0.2,0.1,0.3,0.1c0.1,0,0.1,0,0.2,0
					c0.1,0,0.1-0.1,0.2-0.2c-0.1-0.1-0.2-0.1-0.2-0.1c-0.2,0-0.4-0.1-0.5-0.3c-0.3-0.3-0.5-0.7-0.5-1.1V9.2c0.1-0.1,0.2,0,0.4,0.3
					c0.2,0.3,0.3,0.5,0.4,0.8c0,0.1,0,0.1,0.1,0.1c0.1,0,0.3-0.1,0.4-0.2l0.1-0.1l0.4,0.2c0.1,0.1,0.3,0.1,0.4,0.1
					c0.1,0,0,0.1-0.1,0.1s-0.1,0.1-0.2,0.1s-0.2,0-0.3,0.1s-0.1,0.1-0.1,0.2c0,0,0,0.1,0,0.1c0.1,0,0.1,0,0.1-0.1s0.1-0.1,0.2-0.1
					s0.2,0,0.2-0.1c0.1-0.1,0.2-0.1,0.2-0.1c0.3-0.1,0.3-0.1,0.5,0s0.2,0.1,0.2,0.2s0.1,0.2,0.3,0.2s0.1,0,0.2,0.1l0.1,0.2
					c0.1-0.2,0.1-0.2,0-0.3c0-0.1,0-0.1,0-0.2c0-0.1-0.1-0.2-0.3-0.1c-0.1,0-0.2,0-0.3-0.1L17,10.5h0.3c0.1,0,0.2,0,0.4,0
					c0.1,0,0.2,0,0.3,0c0,0,0.1,0,0.1-0.1c0,0,0.1,0,0.2,0h0.2C18.4,10.4,18.4,10.4,18.4,10.3 M15.3,3.5c0.1,0,0-0.1,0.1-0.1
					c0,0,0.1,0,0.1,0c0.1,0,0.1,0.1,0.1,0.1C15.4,3.6,15.3,3.6,15.3,3.5C15.2,3.4,15.2,3.6,15.3,3.5 M12.5,3.6c-0.1,0-0.2,0-0.3,0
					c0,0,0-0.1,0.1-0.1h0.1c0.1,0,0,0.1,0.1,0.1S12.5,3.4,12.5,3.6"/>
			</g>
		</g>
	</g>
</g>
</svg>
