<svg id="Layer_1" data-name="Layer 1" xmlns="http://www.w3.org/2000/svg" xmlns:xlink="http://www.w3.org/1999/xlink" viewBox="0 0 560.65 150.09"><defs><style>.cls-1{fill:none;}.cls-2{clip-path:url(#clip-path);}.cls-3{fill:#231f20;}.cls-4{fill:#f91515;}.cls-5{fill:#fff;}</style><clipPath id="clip-path" transform="translate(-314.95 -345.9)"><rect class="cls-1" width="1190.55" height="841.89"/></clipPath></defs><title>Print-Logo</title><g class="cls-2"><path class="cls-3" d="M557.45,385.79c-7-6.87-17.39-10.51-26.5-10.51-23,0-36.31,17.24-36.17,38,0,18,10.66,35.33,36.17,35.33a35.09,35.09,0,0,0,24-8.69V420H527.59V406h41.92v40.24c-9.82,10.79-22,17.1-38.56,17.1-36,0-51.59-24-51.59-50.05,0-28.32,18.08-52.43,51.59-52.43a51.61,51.61,0,0,1,36.31,14.86Z" transform="translate(-314.95 -345.9)"/><path class="cls-3" d="M592.81,392v77.53c0,17.39-6.31,26.5-21.87,26.5a26.22,26.22,0,0,1-14.58-4.35l5.18-11.35a19,19,0,0,0,8.84,2.1c6.87-.14,8-4.91,8-12.9V392Zm-16.12-20.33c0,11.92,17.94,11.92,17.94,0,0-11.77-17.94-11.77-17.94,0" transform="translate(-314.95 -345.9)"/><path class="cls-3" d="M616.25,392.24v37c0,11.77,6.73,19.9,18.79,19.9,11.35,0,19.2-9.39,19.2-20.89v-36h14.44V461.5h-13l-.85-10.23c-6.73,7.71-14.16,11.21-23.83,11.21-17,0-29.16-12.19-29.16-33.08V392.24Z" transform="translate(-314.95 -345.9)"/><path class="cls-3" d="M692.13,363.22v39.26c6-8.41,14.16-11.22,22.43-11.22,19.49,0,28.46,13,28.46,32.81v37.29H728.58V424.21c0-13-6.73-19.49-17.39-19.49-11.21,0-19.06,9.25-19.06,20.61v36H677.69V363.22Z" transform="translate(-314.95 -345.9)"/><path class="cls-3" d="M765.27,431.68c1.26,10.51,10,17.38,22.57,17.38,7,0,15.85-2.66,20-7.43l9.39,9.12c-7.15,7.85-19.06,11.77-29.72,11.77-22.71,0-37.29-14.44-37.29-36.59,0-21,14.72-36,36.31-36,22.29,0,37.43,13.6,34.77,41.78Zm42.2-12.2c-.84-10.93-8.83-16.68-20.47-16.68-10.51,0-19.21,5.75-21.45,16.68Z" transform="translate(-314.95 -345.9)"/><path class="cls-3" d="M852.75,371.82v20h20.19v12.48H852.61v33c0,7.29,3.22,11.35,9.95,11.35a20.9,20.9,0,0,0,8.84-2.38l4.2,12.34a32.74,32.74,0,0,1-13.88,3.08c-15,.42-23.55-8.13-23.55-24.39v-33H824.85V391.86h13.32v-18.5Z" transform="translate(-314.95 -345.9)"/><path class="cls-4" d="M446.56,409.31a63.41,63.41,0,1,1-63.41-63.41,63.41,63.41,0,0,1,63.41,63.41" transform="translate(-314.95 -345.9)"/><path class="cls-5" d="M383.15,429.73a4.79,4.79,0,0,1-1.54-.26L318,406.75a4.58,4.58,0,0,1,0-8.64l63.63-21.93a4.61,4.61,0,0,1,3,0l63.63,21.93a4.58,4.58,0,0,1,.05,8.64l-63.63,22.72a4.79,4.79,0,0,1-1.54.26m-49.8-27.22,49.8,17.79L433,402.51l-49.81-17.16Z" transform="translate(-314.95 -345.9)"/><rect class="cls-5" x="104.24" y="64.38" width="9.59" height="68.9"/><path class="cls-4" d="M422.42,478.53a63.55,63.55,0,0,0,5.55-4.94,2.78,2.78,0,0,0,.81-2V453.34l-9.59,8.15V477a2,2,0,0,0,3.23,1.55" transform="translate(-314.95 -345.9)"/></g></svg>