<svg xmlns="http://www.w3.org/2000/svg" viewBox="0 0 33.67 31.16"><defs><style>.cls-1{fill:none;stroke:#ed2727;stroke-linecap:round;stroke-linejoin:round;stroke-width:1.44px;}</style></defs><title>Asset 1</title><g id="Layer_2" data-name="Layer 2"><g id="Isolation_Mode" data-name="Isolation Mode"><path class="cls-1" d="M3.82,15.71c0-2.21-.35-4.5.37-5.89L1.94,8.59c-.56-.3-.67-1.1-.14-1.33L16.31.86a2.63,2.63,0,0,1,1.92.1l14.22,6.2a.75.75,0,0,1,.14,1.34l-14.5,6.39a2.68,2.68,0,0,1-1.92-.09l-12-5L17,7.49M3.5,20.69c-.06,4.52,3.16,6.88.06,9.75L.72,28.34c2-1.16,2.72-3.87,2.78-7.65m23.41-8.9v3.43h0c0,2.58-4.27,4.68-9.55,4.68m0,0c-5.27,0-9.54-2.1-9.54-4.68V12.06M3.7,16.82A1.59,1.59,0,1,1,2.12,18.4,1.59,1.59,0,0,1,3.7,16.82Z"/></g></g></svg>