<svg xmlns="http://www.w3.org/2000/svg" viewBox="0 0 24.99 33.48"><defs><style>.cls-1,.cls-2{fill:none;stroke:#ed2727;stroke-linecap:round;stroke-linejoin:round;}.cls-1{stroke-width:1.44px;}.cls-2{stroke-width:1.44px;}</style></defs><title>Asset 12</title><g id="Layer_2" data-name="Layer 2"><g id="Isolation_Mode" data-name="Isolation Mode"><polyline class="cls-1" points="5.08 13 6.33 14.63 8.88 11.33"/><line class="cls-2" x1="11.71" y1="13.31" x2="19.91" y2="13.31"/><polyline class="cls-1" points="5.08 18.21 6.33 19.84 8.88 16.54"/><line class="cls-2" x1="11.71" y1="18.52" x2="18.06" y2="18.52"/><polyline class="cls-1" points="5.04 23.39 6.29 25.02 8.84 21.72"/><path class="cls-2" d="M11.68,23.7h8.19M4.58,6.25h8.19"/><path class="cls-1" d="M16.32.72H1.94A1.22,1.22,0,0,0,.72,1.94v29.6a1.22,1.22,0,0,0,1.22,1.22H24.27"/><line class="cls-1" x1="24.27" y1="32.76" x2="24.27" y2="8.67"/><path class="cls-1" d="M24.27,8.67H17.54a1.22,1.22,0,0,1-1.22-1.22V.72l8,8Z"/></g></g></svg>